<?xml version="1.0" encoding="utf-8"?>
<!-- Generator: Adobe Illustrator 24.0.1, SVG Export Plug-In . SVG Version: 6.00 Build 0)  -->
<svg version="1.1" id="Layer_1" xmlns="http://www.w3.org/2000/svg" xmlns:xlink="http://www.w3.org/1999/xlink" x="0px" y="0px"
	 viewBox="0 0 150 54.32" style="enable-background:new 0 0 150 54.32;" xml:space="preserve">
<style type="text/css">
	.st0{fill:#03CCFF;}
	.st1{fill:#4F5BC6;}
	.st2{fill:#6667FF;}
	.st3{fill:url(#SVGID_1_);}
	.st4{fill:url(#SVGID_2_);}
	.st5{fill:url(#SVGID_3_);}
	.st6{fill:url(#SVGID_4_);}
	.st7{fill:url(#SVGID_5_);}
	.st8{fill:url(#SVGID_6_);}
</style>
<g>
	<g>
		<g>
			<path class="st0" d="M78.54,50.04c-0.64,0.3-1.37,0.55-2.18,0.74c-0.81,0.19-1.65,0.28-2.52,0.28c-1.21,0-2.37-0.16-3.48-0.48
				c-1.11-0.32-2.08-0.84-2.91-1.56c-0.83-0.72-1.49-1.65-1.98-2.8c-0.49-1.15-0.73-2.54-0.73-4.16V3.26h8.31v37.38
				c0,1.36,0.27,2.29,0.82,2.8c0.55,0.51,1.2,0.76,1.95,0.76c0.94,0,1.85-0.28,2.71-0.85V50.04z"/>
			<path class="st0" d="M113.94,33.86c0,2.3-0.39,4.49-1.16,6.56c-0.77,2.07-1.86,3.89-3.26,5.46c-1.4,1.56-3.06,2.81-4.99,3.73
				c-1.93,0.92-4.04,1.39-6.35,1.39c-1.44,0-2.78-0.2-4.03-0.59c-1.25-0.4-2.42-1.03-3.52-1.89v1.7H82.5V3.26h8.2l0.06,15.84
				c0.94-0.75,2.06-1.36,3.37-1.81c1.3-0.45,2.67-0.68,4.1-0.68c2,0,3.94,0.44,5.83,1.33c1.88,0.89,3.56,2.1,5.03,3.65
				c1.47,1.55,2.65,3.36,3.53,5.46C113.5,29.14,113.94,31.41,113.94,33.86z M105.68,33.86c0-1.51-0.23-2.88-0.68-4.13
				c-0.45-1.24-1.09-2.31-1.9-3.2c-0.81-0.89-1.78-1.56-2.9-2.04c-1.12-0.47-2.36-0.71-3.72-0.71c-0.87,0-1.87,0.18-3.01,0.54
				c-1.14,0.36-2.08,0.82-2.84,1.39v15.72c1.78,1.62,3.78,2.43,6.02,2.43c1.29,0,2.49-0.25,3.6-0.74c1.12-0.49,2.07-1.18,2.87-2.06
				c0.79-0.89,1.42-1.94,1.87-3.17C105.46,36.68,105.68,35.33,105.68,33.86z"/>
			<path class="st0" d="M145.56,50.21h-8.14v-1.75c-1.43,0.98-2.95,1.66-4.55,2.04c-1.6,0.38-3.25,0.57-4.95,0.57
				c-1.58,0-3.02-0.24-4.3-0.71c-1.28-0.47-2.39-1.15-3.34-2.04c-0.94-0.89-1.67-1.93-2.18-3.14c-0.51-1.21-0.76-2.54-0.76-4.01
				c0-1.85,0.4-3.46,1.22-4.84c0.81-1.38,1.91-2.53,3.31-3.45c1.39-0.92,3.03-1.61,4.89-2.06c1.87-0.45,3.87-0.68,6.02-0.68h4.69
				c0-1.92-0.62-3.45-1.87-4.58c-1.24-1.13-3.04-1.7-5.37-1.7c-1.13,0-2.3,0.21-3.51,0.62s-2.41,1.17-3.62,2.26l-4.81-4.86
				c1.73-1.66,3.74-2.94,6.02-3.85c2.28-0.91,4.63-1.36,7.04-1.36c2.26,0,4.28,0.36,6.04,1.07c1.77,0.72,3.19,1.64,4.28,2.77
				c1.42,1.43,2.42,3.04,3.01,4.81c0.58,1.77,0.87,4.04,0.87,6.79V50.21z M137.41,42.06v-6.05h-3.73c-1.13,0-2.2,0.08-3.2,0.23
				c-1,0.15-1.87,0.41-2.6,0.76c-0.74,0.36-1.32,0.82-1.75,1.39c-0.43,0.57-0.65,1.24-0.65,2.04c0,1.13,0.44,2.06,1.33,2.77
				c0.89,0.72,2.03,1.07,3.42,1.07c1.21,0,2.4-0.19,3.59-0.57C135.01,43.33,136.21,42.78,137.41,42.06z"/>
		</g>
	</g>
	<g>
		<g>
			<polygon class="st1" points="19.05,32.87 31.34,32.87 17.8,51.05 4.63,51.05 "/>
			<polygon class="st2" points="4.47,33 19.05,32.87 4.63,51.05"/>
			<polygon class="st0" points="19.05,32.87 31.96,16.2 21.93,3.28 4.44,25.66 4.47,33"/>
			<polygon class="st1" points="44.88,32.87 32.59,32.87 46.13,51.05 59.3,51.05"/>
			<polygon class="st2" points="59.45,33 44.88,32.87 59.3,51.05"/>
			<polygon class="st0" points="44.88,32.87 31.96,16.2 41.99,3.28 59.48,25.66 59.45,33"/>
		</g>
		<polygon class="st2" points="24.48,3.28 32.1,12.6 39.45,3.35"/>
	</g>
</g>
</svg>
